# xmcd
#
# Track frame offsets:
#	182
#	4832
#	10595
#	73307
#	95992
#	175795
#	188232
#	193590
#	228072
#	246592
#	265022
#	303370
#	318787
#	319830
#
# Disc length: 4298 seconds
#
# Revision: 1
# Processed by: cddbd v1.5.1PL0 Copyright (c) Steve Scherf et al.
# Submitted via: audiograbber 1.80
#
DISCID=b810c80e
DTITLE=Jiri Wimmer and Karel Cernoch - Karle, styd se
DYEAR=1900
DGENRE=
TTITLE0=Basen o humoru
TTITLE1=Priznam se vam
TTITLE2=Madarstina
TTITLE3=Neni malych roli
TTITLE4=Pernikova chaloupka
TTITLE5=Rikaj mi Charlie
TTITLE6=Jirka byl velmi nadanej
TTITLE7=Devkar
TTITLE8=Jsem tvuj Gigolo
TTITLE9=Ostrava
TTITLE10=Mobilni telefony
TTITLE11=Ve dvou se to lepe tahne
TTITLE12=Jezdili jsme spolu
TTITLE13=Monolog o hlouposti
EXTD=
EXTT0=
EXTT1=
EXTT2=
EXTT3=
EXTT4=
EXTT5=
EXTT6=
EXTT7=
EXTT8=
EXTT9=
EXTT10=
EXTT11=
EXTT12=
EXTT13=
PLAYORDER=
